<svg width="267" height="95" viewBox="0 0 267 95" fill="none" xmlns="http://www.w3.org/2000/svg">
<path d="M112.712 13.7534L92.8779 48.0682L112.712 81.2481H129.114L109.279 48.0682L129.114 13.7534H112.712Z" fill="#2865B0"/>
<path d="M261.915 33.5819C262.106 33.5819 262.233 33.7154 262.233 33.8489C262.233 33.9825 262.106 34.116 261.978 34.116H260.771V38.3219C260.771 38.4554 260.643 38.5889 260.516 38.5889C260.389 38.5889 260.198 38.4554 260.198 38.3219V34.116H258.991C258.863 34.116 258.736 33.9825 258.736 33.8489C258.736 33.7154 258.863 33.5819 258.991 33.5819H261.915ZM265.856 34.0492C265.92 33.7822 266.174 33.6487 266.428 33.6487C266.746 33.6487 267.001 33.9157 267.001 34.2495V38.4554C267.001 38.5889 266.873 38.7224 266.746 38.7224C266.619 38.7224 266.492 38.5889 266.492 38.4554V34.7168C266.492 34.6501 266.492 34.5833 266.428 34.5833C266.428 34.5833 266.365 34.5833 266.365 34.6501L265.221 38.3886C265.157 38.5222 265.093 38.6557 264.903 38.6557C264.712 38.6557 264.585 38.5222 264.521 38.3219L263.441 34.6501C263.441 34.5833 263.377 34.5833 263.377 34.5833C263.313 34.5833 263.313 34.6501 263.313 34.6501V38.3219C263.313 38.4554 263.186 38.5889 262.996 38.5889C262.868 38.5889 262.741 38.4554 262.741 38.3219V34.116C262.741 33.7822 262.996 33.5151 263.313 33.5151C263.568 33.5151 263.822 33.6487 263.886 33.9157L264.839 37.454L265.856 34.0492Z" fill="white"/>
<path d="M138.395 36.0518C139.222 36.0518 139.73 36.6526 139.73 37.387C139.73 38.1881 139.222 38.7889 138.395 38.7889H132.992C128.351 38.7889 126.38 41.3258 126.38 46.3329V51.0728C126.38 56.4804 128.605 58.9506 132.992 58.9506H138.395C139.222 58.9506 139.73 59.5514 139.73 60.3525C139.73 61.0869 139.222 61.6877 138.395 61.6877H132.992C126.698 61.6877 123.583 58.2162 123.583 51.0728V46.3996C123.583 39.7236 126.698 36.1185 132.992 36.1185H138.395V36.0518Z" fill="white"/>
<path d="M145.197 27.9062C145.197 27.1051 145.769 26.4375 146.595 26.4375C147.422 26.4375 148.057 27.0383 148.057 27.9062V36.051H155.877C159.945 36.051 163.505 39.1887 163.505 44.4628V60.2182C163.505 61.0194 162.87 61.6202 162.043 61.6202C161.217 61.6202 160.645 61.0194 160.645 60.2182V44.5296C160.645 41.058 158.356 38.7882 155.877 38.7882H148.057V60.2182C148.057 61.0194 147.422 61.6202 146.595 61.6202C145.705 61.6202 145.197 61.0194 145.197 60.2182V27.9062Z" fill="white"/>
<path d="M171.008 38.7889C170.054 38.7889 169.546 38.1881 169.546 37.387C169.546 36.6526 170.054 36.0518 170.944 36.0518H179.526C183.404 36.0518 186.138 39.2563 186.138 43.3954V59.4846C186.138 60.6863 185.248 61.621 184.04 61.621H175.203C171.326 61.621 168.147 58.4165 168.147 54.4109C168.147 50.4052 171.262 47.0672 175.203 47.0672H183.277V43.5289C183.277 40.7917 181.751 38.7222 179.336 38.7222L171.008 38.7889ZM183.277 58.817V49.8712H175.203C172.978 49.8712 171.008 51.9407 171.008 54.4109C171.008 56.8142 172.978 58.817 175.203 58.817H183.277Z" fill="white"/>
<path d="M202.791 36.0518C206.859 36.0518 210.419 39.1895 210.419 44.4636V60.1523C210.419 60.8866 209.784 61.621 208.957 61.621C208.131 61.621 207.559 60.8866 207.559 60.1523V44.4636C207.559 41.0588 205.588 38.7889 202.791 38.7889H194.972V60.0855C194.972 60.9534 194.336 61.621 193.509 61.621C192.619 61.621 192.111 60.8866 192.111 60.1523V38.2548C192.111 37.1199 192.937 36.0518 194.272 36.0518H202.791Z" fill="white"/>
<path d="M231.655 36.0518C232.926 36.0518 233.753 36.9864 233.753 38.1881V61.4207C233.753 69.0981 231.782 72.9702 224.853 72.9702H217.542C216.652 72.9702 216.144 72.3694 216.144 71.635C216.144 70.9007 216.652 70.2998 217.479 70.2998H224.789C229.43 70.2998 230.765 67.8297 230.828 61.6877H223.136C219.068 61.6877 215.508 58.55 215.508 53.2759V45.5985C215.508 41.9267 217.479 36.0518 223.2 36.0518H231.655ZM230.892 38.9225H223.264C220.594 38.9225 218.432 41.6596 218.432 45.732V53.2759C218.432 56.6807 220.721 58.817 223.2 58.817H230.892V38.9225Z" fill="white"/>
<path d="M239.345 45.7988C239.345 39.5901 243.35 36.0518 248.436 36.0518C254.348 36.0518 257.781 39.5233 257.781 45.7988V48.1354C257.781 49.3371 256.891 50.205 255.683 50.205H242.206C242.269 56.3469 243.604 58.8838 248.245 58.8838H255.556C256.446 58.8838 256.954 59.4847 256.954 60.2858C256.954 61.0201 256.446 61.621 255.619 61.621H248.245C241.189 61.621 239.345 57.6821 239.345 49.7376V45.7988ZM254.857 45.5985C254.793 41.1255 252.632 38.7889 248.436 38.7889C244.622 38.7889 242.333 41.4594 242.206 45.5985V47.8016H254.857V45.5985Z" fill="white"/>
<path d="M0 27.9726C0 27.1048 0.635713 26.5039 1.52571 26.5039C2.41571 26.5039 3.05142 27.1715 3.05142 27.9726V58.6824H17.1642C18.1178 58.6824 18.7535 59.2832 18.7535 60.1511C18.7535 61.019 18.1178 61.6199 17.2278 61.6199H2.35214C1.01714 61.6199 0 60.6185 0 59.2832V27.9726Z" fill="white"/>
<path d="M25.1102 38.7889C24.1566 38.7889 23.6481 38.1881 23.6481 37.387C23.6481 36.6526 24.1567 36.0518 25.0466 36.0518H33.6288C37.5066 36.0518 40.2402 39.2563 40.2402 43.3954V59.4846C40.2402 60.6863 39.3502 61.621 38.1423 61.621H29.3059C25.4281 61.621 22.2495 58.4165 22.2495 54.4109C22.2495 50.4052 25.3645 47.0672 29.3059 47.0672H37.3795V43.5289C37.3795 40.7917 35.8538 38.7222 33.4381 38.7222L25.1102 38.7889ZM37.3795 58.817V49.8712H29.3059C27.0809 49.8712 25.1102 51.9407 25.1102 54.4109C25.1102 56.8142 27.0809 58.817 29.3059 58.817H37.3795Z" fill="white"/>
<path d="M46.2158 27.9062C46.2158 27.1051 46.8515 26.4375 47.6144 26.4375C48.4408 26.4375 49.0765 27.0383 49.0765 27.9062V36.051H56.7687C60.8372 36.051 64.3972 39.1887 64.3972 44.4628V52.1402C64.3972 55.8121 62.4265 61.6202 56.6415 61.6202H48.3772C47.1694 61.6202 46.2158 60.552 46.2158 59.4171V27.9062ZM49.0765 58.7495H56.7051C59.3751 58.7495 61.5365 56.0123 61.5365 52.0067V44.4628C61.5365 41.058 59.2479 38.7882 56.7687 38.7882H49.0765V58.7495Z" fill="white"/>
<path opacity="0.15" d="M108.58 48.2676L100.761 34.4482L92.8779 48.0674L100.634 60.9521L108.58 48.2676Z" fill="black"/>
<path d="M80.6095 48.2677L52.6382 95H75.7145L103.686 48.2677L75.7145 0H52.6382L80.6095 48.2677Z" fill="url(#paint0_linear)"/>
<defs>
<linearGradient id="paint0_linear" x1="42.6588" y1="74.4973" x2="132.261" y2="-27.4733" gradientUnits="userSpaceOnUse">
<stop stop-color="#FBAC4C"/>
<stop offset="0.0328557" stop-color="#F9A44A"/>
<stop offset="0.0892649" stop-color="#F69144"/>
<stop offset="0.1624" stop-color="#F2713B"/>
<stop offset="0.2486" stop-color="#ED3532"/>
<stop offset="0.3398" stop-color="#D42D34"/>
<stop offset="0.5175" stop-color="#A41D36"/>
<stop offset="1" stop-color="#A41D36"/>
</linearGradient>
</defs>
</svg>
